<svg width="135" height="144" viewBox="0 0 135 144" fill="none" xmlns="http://www.w3.org/2000/svg">
<rect width="133.333" height="144" rx="10" fill="#D69E2E"/>
<rect width="128.395" height="137.455" rx="10" fill="#ECC94B"/>
<path d="M9.8 70.27C9.8 63.0367 11.8767 57.2033 16.03 52.77C20.23 48.29 25.8067 46.05 32.76 46.05C39.76 46.05 45.3367 48.2667 49.49 52.7C53.6433 57.1333 55.72 62.99 55.72 70.27C55.72 77.5033 53.62 83.36 49.42 87.84C45.2667 92.2733 39.7133 94.49 32.76 94.49C25.76 94.49 20.1833 92.2733 16.03 87.84C11.8767 83.4067 9.8 77.55 9.8 70.27ZM24.43 59.77C22.3767 62.3367 21.35 65.8367 21.35 70.27C21.35 74.7033 22.3767 78.2267 24.43 80.84C26.4833 83.4067 29.26 84.69 32.76 84.69C36.26 84.69 39.0367 83.4067 41.09 80.84C43.1433 78.2267 44.17 74.7033 44.17 70.27C44.17 65.8367 43.1433 62.3367 41.09 59.77C39.0367 57.1567 36.26 55.85 32.76 55.85C29.26 55.85 26.4833 57.1567 24.43 59.77ZM72.893 58.51V65.09C73.5463 63.0367 74.6196 61.4033 76.113 60.19C77.653 58.93 79.4263 58.3 81.433 58.3C82.553 58.3 83.4396 58.3933 84.093 58.58V68.24C82.973 67.7267 81.6896 67.47 80.243 67.47C78.0496 67.47 76.2763 68.2867 74.923 69.92C73.5696 71.5067 72.893 73.63 72.893 76.29V94H62.673L62.743 58.51H72.893ZM104.401 84.69C106.595 84.69 108.298 83.8733 109.511 82.24C110.771 80.56 111.401 78.5533 111.401 76.22C111.401 69.8733 109.091 66.7 104.471 66.7C102.418 66.7 100.808 67.4933 99.6412 69.08C98.4745 70.6667 97.8912 72.86 97.8912 75.66C97.8912 78.6 98.4512 80.84 99.5712 82.38C100.691 83.92 102.301 84.69 104.401 84.69ZM111.401 58.51H121.551V90.57C121.551 96.2633 119.848 100.533 116.441 103.38C113.035 106.273 108.765 107.72 103.631 107.72C98.6378 107.72 94.2745 106.833 90.5412 105.06V94.63C93.8078 97.2433 97.8212 98.55 102.581 98.55C105.661 98.55 107.901 97.8967 109.301 96.59C110.701 95.2833 111.401 93.23 111.401 90.43V88.05C109.348 91.2233 106.081 92.81 101.601 92.81C97.6812 92.81 94.2978 91.3633 91.4512 88.47C88.6512 85.5767 87.2512 81.2833 87.2512 75.59C87.2512 70.55 88.6045 66.3967 91.3112 63.13C94.0645 59.8167 97.6578 58.16 102.091 58.16C106.291 58.16 109.395 59.84 111.401 63.2V58.51Z" fill="#1A202C"/>
</svg>
