<svg width="222" height="100" viewBox="0 0 222 100" fill="none" xmlns="http://www.w3.org/2000/svg">
<rect width="100" height="100" rx="10" fill="#D69E2E"/>
<rect width="96.2963" height="95.4545" rx="10" fill="#ECC94B"/>
<path d="M14 48.05C14 42.8833 15.4833 38.7167 18.45 35.55C21.45 32.35 25.4333 30.75 30.4 30.75C35.4 30.75 39.3833 32.3333 42.35 35.5C45.3167 38.6667 46.8 42.85 46.8 48.05C46.8 53.2167 45.3 57.4 42.3 60.6C39.3333 63.7667 35.3667 65.35 30.4 65.35C25.4 65.35 21.4167 63.7667 18.45 60.6C15.4833 57.4333 14 53.25 14 48.05ZM24.45 40.55C22.9833 42.3833 22.25 44.8833 22.25 48.05C22.25 51.2167 22.9833 53.7333 24.45 55.6C25.9167 57.4333 27.9 58.35 30.4 58.35C32.9 58.35 34.8833 57.4333 36.35 55.6C37.8167 53.7333 38.55 51.2167 38.55 48.05C38.55 44.8833 37.8167 42.3833 36.35 40.55C34.8833 38.6833 32.9 37.75 30.4 37.75C27.9 37.75 25.9167 38.6833 24.45 40.55ZM59.0664 39.65V44.35C59.5331 42.8833 60.2997 41.7167 61.3664 40.85C62.4664 39.95 63.7331 39.5 65.1664 39.5C65.9664 39.5 66.5997 39.5667 67.0664 39.7V46.6C66.2664 46.2333 65.3497 46.05 64.3164 46.05C62.7497 46.05 61.4831 46.6333 60.5164 47.8C59.5497 48.9333 59.0664 50.45 59.0664 52.35V65H51.7664L51.8164 39.65H59.0664ZM81.5723 58.35C83.1389 58.35 84.3556 57.7667 85.2223 56.6C86.1223 55.4 86.5723 53.9667 86.5723 52.3C86.5723 47.7667 84.9223 45.5 81.6223 45.5C80.1556 45.5 79.0056 46.0667 78.1723 47.2C77.3389 48.3333 76.9223 49.9 76.9223 51.9C76.9223 54 77.3223 55.6 78.1223 56.7C78.9223 57.8 80.0723 58.35 81.5723 58.35ZM86.5723 39.65H93.8223V62.55C93.8223 66.6167 92.6056 69.6667 90.1723 71.7C87.7389 73.7667 84.6889 74.8 81.0223 74.8C77.4556 74.8 74.3389 74.1667 71.6723 72.9V65.45C74.0056 67.3167 76.8723 68.25 80.2723 68.25C82.4723 68.25 84.0723 67.7833 85.0723 66.85C86.0723 65.9167 86.5723 64.45 86.5723 62.45V60.75C85.1056 63.0167 82.7723 64.15 79.5723 64.15C76.7723 64.15 74.3556 63.1167 72.3223 61.05C70.3223 58.9833 69.3223 55.9167 69.3223 51.85C69.3223 48.25 70.2889 45.2833 72.2223 42.95C74.1889 40.5833 76.7556 39.4 79.9223 39.4C82.9223 39.4 85.1389 40.6 86.5723 43V39.65Z" fill="#1A202C"/>
<path d="M117.55 54.6H115.2C113.967 54.6 113.017 54.8667 112.35 55.4C111.683 55.9333 111.35 56.6167 111.35 57.45C111.35 59.15 112.333 60 114.3 60C115.333 60 116.133 59.6833 116.7 59.05C117.267 58.4167 117.55 57.55 117.55 56.45V54.6ZM105.7 47.45V40.9C107.7 39.7667 110.583 39.2 114.35 39.2C117.95 39.2 120.633 39.9833 122.4 41.55C124.167 43.0833 125.05 45.4833 125.05 48.75V65H117.9V61.9C116.833 64.0667 114.733 65.15 111.6 65.15C109.133 65.15 107.2 64.45 105.8 63.05C104.433 61.65 103.75 59.9 103.75 57.8C103.75 55.3667 104.633 53.4833 106.4 52.15C108.2 50.7833 110.85 50.1 114.35 50.1H117.55V48.35C117.55 46.2167 116.133 45.15 113.3 45.15C110.567 45.15 108.033 45.9167 105.7 47.45ZM138.081 39.65V43.95C138.715 42.55 139.681 41.45 140.981 40.65C142.315 39.8167 143.898 39.4 145.731 39.4C148.331 39.4 150.365 40.1833 151.831 41.75C153.298 43.2833 154.031 45.55 154.031 48.55V65H146.731V49.9C146.731 48.4 146.381 47.2667 145.681 46.5C144.981 45.7 143.998 45.3 142.731 45.3C141.398 45.3 140.281 45.8333 139.381 46.9C138.515 47.9333 138.081 49.5 138.081 51.6V65H130.781V39.65H138.081ZM160.035 65V39.65H167.335V65H160.035ZM160.685 35.3C159.852 34.4667 159.435 33.4667 159.435 32.3C159.435 31.1333 159.852 30.1333 160.685 29.3C161.518 28.4667 162.518 28.05 163.685 28.05C164.852 28.05 165.852 28.4667 166.685 29.3C167.518 30.1333 167.935 31.1333 167.935 32.3C167.935 33.4667 167.518 34.4667 166.685 35.3C165.852 36.1333 164.852 36.55 163.685 36.55C162.518 36.55 161.518 36.1333 160.685 35.3ZM191.954 39.65V44.7L180.854 59.35H192.554V65H172.604V59.75L183.704 45.25H173.054V39.65H191.954ZM212.179 50V49.4C211.946 46.4333 210.646 44.95 208.279 44.95C207.113 44.95 206.079 45.3833 205.179 46.25C204.279 47.0833 203.679 48.3333 203.379 50H212.179ZM217.429 57.45V63.55C215.696 64.6833 213.046 65.25 209.479 65.25C205.313 65.25 202.063 64.05 199.729 61.65C197.429 59.2167 196.279 56.1 196.279 52.3C196.279 48.2667 197.396 45.1167 199.629 42.85C201.896 40.55 204.679 39.4 207.979 39.4C211.379 39.4 214.063 40.4 216.029 42.4C217.996 44.3667 218.979 47.3167 218.979 51.25C218.979 52.0167 218.846 53.3333 218.579 55.2H203.679C204.179 56.6 205.046 57.6833 206.279 58.45C207.513 59.2167 208.996 59.6 210.729 59.6C213.296 59.6 215.529 58.8833 217.429 57.45Z" fill="#F7FAFC"/>
</svg>
