<svg width="66" height="60" viewBox="0 0 66 60" fill="none" xmlns="http://www.w3.org/2000/svg">
<rect width="60" height="60" rx="10" fill="#171923"/>
<rect width="57.7778" height="57.2727" rx="10" fill="#1A202C"/>
<path d="M13 28.525C13 25.9417 13.7417 23.8583 15.225 22.275C16.725 20.675 18.7167 19.875 21.2 19.875C23.7 19.875 25.6917 20.6667 27.175 22.25C28.6583 23.8333 29.4 25.925 29.4 28.525C29.4 31.1083 28.65 33.2 27.15 34.8C25.6667 36.3833 23.6833 37.175 21.2 37.175C18.7 37.175 16.7083 36.3833 15.225 34.8C13.7417 33.2167 13 31.125 13 28.525ZM18.225 24.775C17.4917 25.6917 17.125 26.9417 17.125 28.525C17.125 30.1083 17.4917 31.3667 18.225 32.3C18.9583 33.2167 19.95 33.675 21.2 33.675C22.45 33.675 23.4417 33.2167 24.175 32.3C24.9083 31.3667 25.275 30.1083 25.275 28.525C25.275 26.9417 24.9083 25.6917 24.175 24.775C23.4417 23.8417 22.45 23.375 21.2 23.375C19.95 23.375 18.9583 23.8417 18.225 24.775ZM35.5332 24.325V26.675C35.7665 25.9417 36.1499 25.3583 36.6832 24.925C37.2332 24.475 37.8665 24.25 38.5832 24.25C38.9832 24.25 39.2999 24.2833 39.5332 24.35V27.8C39.1332 27.6167 38.6749 27.525 38.1582 27.525C37.3749 27.525 36.7415 27.8167 36.2582 28.4C35.7749 28.9667 35.5332 29.725 35.5332 30.675V37H31.8832L31.9082 24.325H35.5332ZM46.7861 33.675C47.5695 33.675 48.1778 33.3833 48.6111 32.8C49.0611 32.2 49.2861 31.4833 49.2861 30.65C49.2861 28.3833 48.4611 27.25 46.8111 27.25C46.0778 27.25 45.5028 27.5333 45.0861 28.1C44.6695 28.6667 44.4611 29.45 44.4611 30.45C44.4611 31.5 44.6611 32.3 45.0611 32.85C45.4611 33.4 46.0361 33.675 46.7861 33.675ZM49.2861 24.325H52.9111V35.775C52.9111 37.8083 52.3028 39.3333 51.0861 40.35C49.8695 41.3833 48.3445 41.9 46.5111 41.9C44.7278 41.9 43.1695 41.5833 41.8361 40.95V37.225C43.0028 38.1583 44.4361 38.625 46.1361 38.625C47.2361 38.625 48.0361 38.3917 48.5361 37.925C49.0361 37.4583 49.2861 36.725 49.2861 35.725V34.875C48.5528 36.0083 47.3861 36.575 45.7861 36.575C44.3861 36.575 43.1778 36.0583 42.1611 35.025C41.1611 33.9917 40.6611 32.4583 40.6611 30.425C40.6611 28.625 41.1445 27.1417 42.1111 25.975C43.0945 24.7917 44.3778 24.2 45.9611 24.2C47.4611 24.2 48.5695 24.8 49.2861 26V24.325Z" fill="#F7FAFC"/>
</svg>
