<svg width="219" height="100" viewBox="0 0 219 100" fill="none" xmlns="http://www.w3.org/2000/svg">
<rect width="100" height="100" rx="10" fill="#171923"/>
<rect width="96.2963" height="95.4545" rx="10" fill="#1A202C"/>
<path d="M14 47.05C14 41.8833 15.4833 37.7167 18.45 34.55C21.45 31.35 25.4333 29.75 30.4 29.75C35.4 29.75 39.3833 31.3333 42.35 34.5C45.3167 37.6667 46.8 41.85 46.8 47.05C46.8 52.2167 45.3 56.4 42.3 59.6C39.3333 62.7667 35.3667 64.35 30.4 64.35C25.4 64.35 21.4167 62.7667 18.45 59.6C15.4833 56.4333 14 52.25 14 47.05ZM24.45 39.55C22.9833 41.3833 22.25 43.8833 22.25 47.05C22.25 50.2167 22.9833 52.7333 24.45 54.6C25.9167 56.4333 27.9 57.35 30.4 57.35C32.9 57.35 34.8833 56.4333 36.35 54.6C37.8167 52.7333 38.55 50.2167 38.55 47.05C38.55 43.8833 37.8167 41.3833 36.35 39.55C34.8833 37.6833 32.9 36.75 30.4 36.75C27.9 36.75 25.9167 37.6833 24.45 39.55ZM59.0664 38.65V43.35C59.5331 41.8833 60.2997 40.7167 61.3664 39.85C62.4664 38.95 63.7331 38.5 65.1664 38.5C65.9664 38.5 66.5997 38.5667 67.0664 38.7V45.6C66.2664 45.2333 65.3497 45.05 64.3164 45.05C62.7497 45.05 61.4831 45.6333 60.5164 46.8C59.5497 47.9333 59.0664 49.45 59.0664 51.35V64H51.7664L51.8164 38.65H59.0664ZM81.5723 57.35C83.1389 57.35 84.3556 56.7667 85.2223 55.6C86.1223 54.4 86.5723 52.9667 86.5723 51.3C86.5723 46.7667 84.9223 44.5 81.6223 44.5C80.1556 44.5 79.0056 45.0667 78.1723 46.2C77.3389 47.3333 76.9223 48.9 76.9223 50.9C76.9223 53 77.3223 54.6 78.1223 55.7C78.9223 56.8 80.0723 57.35 81.5723 57.35ZM86.5723 38.65H93.8223V61.55C93.8223 65.6167 92.6056 68.6667 90.1723 70.7C87.7389 72.7667 84.6889 73.8 81.0223 73.8C77.4556 73.8 74.3389 73.1667 71.6723 71.9V64.45C74.0056 66.3167 76.8723 67.25 80.2723 67.25C82.4723 67.25 84.0723 66.7833 85.0723 65.85C86.0723 64.9167 86.5723 63.45 86.5723 61.45V59.75C85.1056 62.0167 82.7723 63.15 79.5723 63.15C76.7723 63.15 74.3556 62.1167 72.3223 60.05C70.3223 57.9833 69.3223 54.9167 69.3223 50.85C69.3223 47.25 70.2889 44.2833 72.2223 41.95C74.1889 39.5833 76.7556 38.4 79.9223 38.4C82.9223 38.4 85.1389 39.6 86.5723 42V38.65Z" fill="#F7FAFC"/>
<path d="M114.55 54.6H112.2C110.967 54.6 110.017 54.8667 109.35 55.4C108.683 55.9333 108.35 56.6167 108.35 57.45C108.35 59.15 109.333 60 111.3 60C112.333 60 113.133 59.6833 113.7 59.05C114.267 58.4167 114.55 57.55 114.55 56.45V54.6ZM102.7 47.45V40.9C104.7 39.7667 107.583 39.2 111.35 39.2C114.95 39.2 117.633 39.9833 119.4 41.55C121.167 43.0833 122.05 45.4833 122.05 48.75V65H114.9V61.9C113.833 64.0667 111.733 65.15 108.6 65.15C106.133 65.15 104.2 64.45 102.8 63.05C101.433 61.65 100.75 59.9 100.75 57.8C100.75 55.3667 101.633 53.4833 103.4 52.15C105.2 50.7833 107.85 50.1 111.35 50.1H114.55V48.35C114.55 46.2167 113.133 45.15 110.3 45.15C107.567 45.15 105.033 45.9167 102.7 47.45ZM135.081 39.65V43.95C135.715 42.55 136.681 41.45 137.981 40.65C139.315 39.8167 140.898 39.4 142.731 39.4C145.331 39.4 147.365 40.1833 148.831 41.75C150.298 43.2833 151.031 45.55 151.031 48.55V65H143.731V49.9C143.731 48.4 143.381 47.2667 142.681 46.5C141.981 45.7 140.998 45.3 139.731 45.3C138.398 45.3 137.281 45.8333 136.381 46.9C135.515 47.9333 135.081 49.5 135.081 51.6V65H127.781V39.65H135.081ZM157.035 65V39.65H164.335V65H157.035ZM157.685 35.3C156.852 34.4667 156.435 33.4667 156.435 32.3C156.435 31.1333 156.852 30.1333 157.685 29.3C158.518 28.4667 159.518 28.05 160.685 28.05C161.852 28.05 162.852 28.4667 163.685 29.3C164.518 30.1333 164.935 31.1333 164.935 32.3C164.935 33.4667 164.518 34.4667 163.685 35.3C162.852 36.1333 161.852 36.55 160.685 36.55C159.518 36.55 158.518 36.1333 157.685 35.3ZM188.954 39.65V44.7L177.854 59.35H189.554V65H169.604V59.75L180.704 45.25H170.054V39.65H188.954ZM209.179 50V49.4C208.946 46.4333 207.646 44.95 205.279 44.95C204.113 44.95 203.079 45.3833 202.179 46.25C201.279 47.0833 200.679 48.3333 200.379 50H209.179ZM214.429 57.45V63.55C212.696 64.6833 210.046 65.25 206.479 65.25C202.313 65.25 199.063 64.05 196.729 61.65C194.429 59.2167 193.279 56.1 193.279 52.3C193.279 48.2667 194.396 45.1167 196.629 42.85C198.896 40.55 201.679 39.4 204.979 39.4C208.379 39.4 211.063 40.4 213.029 42.4C214.996 44.3667 215.979 47.3167 215.979 51.25C215.979 52.0167 215.846 53.3333 215.579 55.2H200.679C201.179 56.6 202.046 57.6833 203.279 58.45C204.513 59.2167 205.996 59.6 207.729 59.6C210.296 59.6 212.529 58.8833 214.429 57.45Z" fill="#1A202C"/>
</svg>
